# AST/ASF file generated using VICON BodyLanguage
# -----------------------------------------------
:version 1.10
:name VICON
:units
  mass 1.0
  length 0.45
  angle deg
:documentation
   .ast/.asf automatically generated from VICON data using
   VICON BodyBuilder and BodyLanguage model FoxedUp or BRILLIANT.MOD
:root
   order TX TY TZ RX RY RZ
   axis XYZ
   position 0 0 0  
   orientation 0 0 0 
:bonedata
  begin
     id 1 
     name lhipjoint
     direction 0.612567 -0.751349 0.245431 
     length 2.42285 
     axis 0 0 0  XYZ
  end
  begin
     id 2 
     name lfemur
     direction 0.34202 -0.939693 0  
     length 7.11304  
     axis 0 0 20  XYZ
    dof rx ry rz
    limits (-160.0 20.0)
           (-70.0 70.0)
           (-60.0 70.0)
  end
  begin
     id 3 
     name ltibia
     direction 0.34202 -0.939693 0   
     length 7.84529   
     axis 0 0 20   XYZ
    dof rx
    limits (-10.0 170.0)
  end
  begin
     id 4 
     name lfoot
     direction 0.0779239 -0.214094 0.9737   
     length 1.97176   
     axis -90 7.62852e-016 20   XYZ
    dof rx rz
    limits (-45.0 90.0)
           (-70.0 20.0)
  end
  begin
     id 5 
     name ltoes
     direction 1.53565e-011 -4.21709e-011 1   
     length 0.993197   
     axis -90 7.62852e-016 20   XYZ
    dof rx
    limits (-90.0 20.0)
  end
  begin
     id 6 
     name rhipjoint
     direction -0.665722 -0.709315 0.231701   
     length 2.56642  
     axis 0 0 0  XYZ 
  end
  begin
     id 7 
     name rfemur
     direction -0.34202 -0.939693 0   
     length 7.32108   
     axis 0 0 -20   XYZ
    dof rx ry rz
    limits (-160.0 20.0)
           (-70.0 70.0)
           (-70.0 60.0)
  end
  begin
     id 8 
     name rtibia
     direction -0.34202 -0.939693 0   
     length 7.81254   
     axis 0 0 -20   XYZ
    dof rx
    limits (-10.0 170.0)
 end
 begin
     id 9 
     name rfoot
     direction -0.0832806 -0.228812 0.969902   
     length 2.08278  
     axis -90 -7.62852e-016 -20   XYZ
    dof rx rz
    limits (-45.0 90.0)
           (-20.0 70.0)
  end
  begin
     id 10 
     name rtoes
     direction -1.53589e-011 -4.22086e-011 1   
     length 1.04609   
     axis -90 -7.62852e-016 -20   XYZ
    dof rx
    limits (-90.0 20.0)
  end
  begin
     id 11 
     name lowerback
     direction -0.00506013 0.988403 -0.151766   
     length 2.01978   
     axis 0 0 0   XYZ
    dof rx ry rz
    limits (-20.0 45.0)
           (-30.0 30.0)
           (-30.0 30.0)
  end
  begin
     id 12 
     name upperback
     direction -0.00836389 0.99968 0.0238859   
     length 2.01276   
     axis 0 0 0   XYZ
    dof rx ry rz
    limits (-20.0 45.0)
           (-30.0 30.0)
           (-30.0 30.0)
  end
  begin
     id 13 
     name thorax
     direction -0.00684136 0.995386 0.0957043   
     length 2.07303   
     axis 0 0 0   XYZ
    dof rx ry rz
    limits (-20.0 45.0)
           (-30.0 30.0)
           (-30.0 30.0)
  end
  begin
     id 14 
     name lowerneck
     direction -0.0161045 0.999661 0.0204485   
     length 1.91243   
     axis 0 0 0   XYZ
    dof rx ry rz
    limits (-20.0 45.0)
           (-30.0 30.0)
           (-30.0 30.0)
  end
  begin
     id 15 
     name upperneck
     direction 0.0553583 0.990946 -0.122319   
     length 1.91574   
     axis 0 0 0   XYZ
    dof rx ry rz
    limits (-20.0 45.0)
           (-30.0 30.0)
           (-30.0 30.0)
  end
  begin
     id 16
     name head
     direction 0.0180273 0.998839 -0.0446756  
     length 1.92693  
     axis 0 0 0   XYZ
    dof rx ry rz
    limits (-20.0 45.0)
           (-30.0 30.0)
           (-30.0 30.0)
  end
  begin
     id 17 
     name lclavicle
     direction 0.945646 0.319323 -0.0615358  
     length 4.0076  
     axis 0 0 0   XYZ
    dof ry rz
    limits (-20.0 10.0)
           (0.0 20.0)
  end
  begin
     id 18 
     name lhumerus
     direction 1 -4.48967e-011 -2.79996e-027   
     length 5.64147   
     axis 180 -30 -90   XYZ
    dof rx ry rz
    limits (-60.0 90.0)
           (-90.0 90.0)
           (-90.0 90.0)
  end
  begin
     id 19
     name lradius
     direction 1 -4.48976e-011 -9.5122e-027   
     length 2.86444   
     axis 180 -30 -90   XYZ
    dof rx
    limits (-10.0 170.0)
  end
  begin
     id 20
     name lwrist
     direction 1 -4.48983e-011 -1.24047e-026   
     length 1.43222   
     axis 9.05591e-015 90 90   XYZ
    dof ry
    limits (-180.0 0.0)
 end
  begin
     id 21 
     name lhand
     direction 1 -4.4892e-011 -2.48094e-026   
     length 0.722123   
     axis 1.58305e-014 90 90   XYZ
    dof rx rz
    limits (-90.0 90.0)
           (-45.0 45.0)
  end
  begin
     id 22 
     name lfingers
     direction 1 -4.48895e-011 -4.96187e-026   
     length 0.582194   
     axis 3.1661e-014 90 90   XYZ
    dof rx
    limits (0.0 90.0)
  end
  begin
     id 23
     name lthumb
     direction 0.707107 -6.34961e-011 0.707107   
     length 0.835918   
     axis -90 45 2.85299e-015   XYZ
    dof rx rz
    limits (-45.0 45.0)
           (-45.0 45.0)
  end
  begin
     id 24 
     name rclavicle
     direction -0.932635 0.324218 -0.15835   
     length 3.65819  
     axis 0 0 0   XYZ 
    dof ry rz
    limits (-10.0 20.0)
           (-20.0 0.0)
  end
  begin
     id 25 
     name rhumerus
     direction -1 -4.48965e-011 -4.02296e-027  
     length 5.44729   
     axis 180 30 90   XYZ
    dof rx ry rz
    limits (-90.0 60.0)
           (-90.0 90.0)
           (-90.0 90.0)
  end
  begin
     id 26 
     name rradius
     direction -1 -4.48957e-011 -8.81087e-027   
     length 3.08821   
     axis 180 30 90   XYZ
    dof rx
    limits (-10.0 170.0)
  end
  begin
     id 27 
     name rwrist
     direction -1 -4.49015e-011 -1.24047e-026   
     length 1.5441   
     axis 9.05591e-015 -90 -90   XYZ
    dof ry
    limits (-180.0 0.0)
  end
  begin
     id 28
     name rhand
     direction -1 -4.4891e-011 -2.48094e-026   
     length 0.821049   
     axis 1.58305e-014 -90 -90   XYZ
    dof rx rz
    limits (-90.0 90.0)
           (-45.0 45.0)
  end
  begin
     id 29
     name rfingers
     direction -1 -4.48985e-011 -4.96187e-026   
     length 0.661951   
     axis 3.1661e-014 -90 -90   XYZ
    dof rx
    limits (0.0 90.0)
  end
  begin
     id 30
     name rthumb
     direction -0.707107 -6.34906e-011 0.707107   
     length 0.950433   
     axis -90 -45 -2.85299e-015   XYZ
    dof rx rz
    limits (-45.0 45.0)
           (-45.0 45.0)
  end
:hierarchy
  begin
    root lhipjoint rhipjoint lowerback
    lhipjoint lfemur
    lfemur ltibia
    ltibia lfoot
    lfoot ltoes
    rhipjoint rfemur
    rfemur rtibia
    rtibia rfoot
    rfoot rtoes
    lowerback upperback
    upperback thorax
    thorax lowerneck lclavicle rclavicle
    lowerneck upperneck
    upperneck head
    lclavicle lhumerus
    lhumerus lradius
    lradius lwrist
    lwrist lhand lthumb
    lhand lfingers
    rclavicle rhumerus
    rhumerus rradius
    rradius rwrist
    rwrist rhand rthumb
    rhand rfingers
  end

#!OML:ASF F:\VICON\USERDATA\INSTALL\rory3\rory3.ASF
:FULLY-SPECIFIED
:DEGREES
2195
root 3.96708 17.557 0.241249 187.25 95.3347 189.499
lowerback -3.88092 -3.03254 0.612784
upperback -7.19917 -3.9007 -1.65105
thorax -5.45173 -1.93791 -2.02337
lowerneck 6.27029 -18.3949 -8.24375
upperneck -1.70349 -25.0051 7.43921
head 0.489061 -12.5929 3.62532
rclavicle -4.91992e-014 -1.41137e-014
rhumerus -41.6986 13.0722 -94.0449
rradius 101.432
rwrist -6.92492
rhand -18.0512 30.0735
rfingers 7.12502
rthumb 8.22095 0.253484
lclavicle -4.91992e-014 -1.41137e-014
lhumerus -60.9979 -6.87981 97.1715
lradius 116.179
lwrist 52.4577
lhand -2.28622 -3.82969
lfingers 7.12502
lthumb 23.3988 24.7678
rfemur 1.75532 4.41313 18.2282
rtibia 19.5659
rfoot -21.8908 -4.93681
rtoes -9.09805
lfemur 5.59567 1.6205 -17.3167
ltibia 10.68
lfoot -14.6684 2.43982
ltoes -4.64489
2196
root 3.96397 17.5543 0.235177 185.759 96.064 188.069
lowerback -3.87796 -2.95853 0.628046
upperback -7.16496 -3.80955 -1.79823
thorax -5.42517 -1.89861 -2.18643
lowerneck 6.44697 -18.471 -8.22801
upperneck -1.74261 -25.1173 7.42596
head 0.452344 -12.6519 3.6372
rclavicle -3.18055e-015 -8.34896e-015
rhumerus -40.4511 13.8606 -93.9029
rradius 101.542
rwrist -6.66612
rhand -19.2385 29.9737
rfingers 7.12502
rthumb 7.07491 0.111994
lclavicle -3.18055e-015 -8.34896e-015
lhumerus -61.798 -6.65788 96.9586
lradius 116.03
lwrist 52.8001
lhand -2.29567 -3.67832
lfingers 7.12502
lthumb 23.3898 24.9204
rfemur 1.61963 4.59229 18.1847
rtibia 19.6649
rfoot -21.6687 -4.50658
rtoes -9.32919
lfemur 5.85371 1.82368 -17.3439
ltibia 10.5668
lfoot -14.82 2.8931
ltoes -4.26071
2197
root 3.95723 17.5542 0.226964 184.228 96.775 186.556
lowerback -3.95041 -2.85963 0.734945
upperback -7.10176 -3.68491 -1.93541
thorax -5.32852 -1.84696 -2.39504
lowerneck 6.53996 -18.5734 -8.20554
upperneck -1.74835 -25.2603 7.37634
head 0.436675 -12.7246 3.62406
rclavicle 4.34344e-014 1.66979e-014
rhumerus -39.0985 14.4072 -93.5107
rradius 101.797
rwrist -6.70051
rhand -19.4895 29.8654
rfingers 7.12502
rthumb 6.83261 -0.00438284
lclavicle 4.34344e-014 1.66979e-014
lhumerus -62.4007 -6.90621 96.8655
lradius 115.866
lwrist 53.2071
lhand -2.55454 -3.52537
lfingers 7.12502
lthumb 23.1414 25.1047
rfemur 1.42819 4.77712 18.1933
rtibia 19.7671
rfoot -21.4227 -4.11657
rtoes -9.53163
lfemur 6.05643 1.90695 -17.3445
ltibia 10.4369
lfoot -15.0039 3.47592
ltoes -4.25255
2198
root 3.95165 17.5559 0.221246 183.058 97.3113 185.38
lowerback -4.01241 -2.82843 0.816366
upperback -7.06004 -3.64955 -2.07767
thorax -5.26343 -1.8381 -2.59261
lowerneck 6.52982 -18.6714 -8.12696
upperneck -1.65221 -25.3907 7.24982
head 0.45185 -12.7886 3.56385
rclavicle -2.00773e-014 2.14687e-014
rhumerus -37.7474 14.7001 -92.9716
rradius 102.089
rwrist -7.10025
rhand -19.1828 29.9661
rfingers 7.12502
rthumb 7.12872 0.10613
lclavicle -2.00773e-014 2.14687e-014
lhumerus -62.9425 -7.20494 96.6825
lradius 115.743
lwrist 53.5789
lhand -2.76471 -3.24431
lfingers 7.12502
lthumb 22.9398 25.4109
rfemur 1.23635 5.02328 18.2525
rtibia 19.8992
rfoot -21.2848 -3.85711
rtoes -9.35497
lfemur 6.2438 1.86858 -17.3327
ltibia 10.243
lfoot -15.1648 4.05319
ltoes -4.22699
2199
root 3.94538 17.5579 0.217738 182.982 97.8113 185.281
lowerback -3.9993 -2.85142 0.675536
upperback -7.09278 -3.68261 -2.19503
thorax -5.30658 -1.85063 -2.6345
lowerneck 6.60811 -18.7065 -8.12812
upperneck -1.58345 -25.4477 7.14814
head 0.451475 -12.8176 3.53654
rclavicle -2.83268e-014 -1.63003e-014
rhumerus -36.4591 15.0409 -92.4475
rradius 102.354
rwrist -7.89284
rhand -18.8229 29.9033
rfingers 7.12502
rthumb 7.47609 0.0553963
lclavicle -2.83268e-014 -1.63003e-014
lhumerus -63.5242 -7.25681 96.4534
lradius 115.546
lwrist 53.6844
lhand -2.70789 -3.10225
lfingers 7.12502
lthumb 22.9943 25.5462
rfemur 1.03623 5.19065 18.1811
rtibia 20.015
rfoot -21.1231 -3.65362
rtoes -9.93652
lfemur 6.38065 1.92846 -17.4302
ltibia 10.0887
lfoot -15.2912 4.49087
ltoes -3.71123
2200
root 3.93369 17.5607 0.211778 184.198 98.3348 186.497
lowerback -3.87769 -2.8482 0.352194
upperback -7.16343 -3.68192 -2.35663
thorax -5.44038 -1.83771 -2.61515
lowerneck 6.78537 -18.764 -8.14573
upperneck -1.56918 -25.5399 7.07597
head 0.426222 -12.8659 3.53347
rclavicle 2.27608e-014 2.10712e-014
rhumerus -35.2578 15.3204 -91.8966
rradius 102.561
rwrist -8.28052
rhand -18.4116 29.4415
rfingers 7.12502
rthumb 7.87312 -0.391884
lclavicle 2.27608e-014 2.10712e-014
lhumerus -64.0925 -7.47559 96.3699
lradius 115.286
lwrist 53.7491
lhand -2.80467 -3.22905
lfingers 7.12502
lthumb 22.9014 25.431
rfemur 0.84015 5.21195 17.8671
rtibia 20.0887
rfoot -20.8406 -3.47524
rtoes -10.8504
lfemur 6.44578 1.99191 -17.7528
ltibia 10.0295
lfoot -15.469 4.96709
ltoes -3.70936
2201
root 3.91113 17.5652 0.210122 183.611 98.7841 185.894
lowerback -3.6357 -2.83344 0.208915
upperback -7.2255 -3.66933 -2.43901
thorax -5.63956 -1.82693 -2.60831
lowerneck 6.91605 -18.8307 -8.18957
upperneck -1.56165 -25.6432 7.0644
head 0.419564 -12.9197 3.54501
rclavicle 1.15295e-014 -1.98785e-015
rhumerus -34.1082 15.5594 -91.3095
rradius 102.701
rwrist -8.32399
rhand -18.1401 29.0135
rfingers 7.12502
rthumb 8.13515 -0.80989
lclavicle 1.15295e-014 -1.98785e-015
lhumerus -64.5144 -7.87309 96.3157
lradius 115.088
lwrist 53.818
lhand -2.99436 -3.29527
lfingers 7.12502
lthumb 22.7194 25.3872
rfemur 0.570817 5.46178 17.9164
rtibia 20.2154
rfoot -20.6884 -3.41897
rtoes -11.0392
lfemur 6.5508 2.42775 -17.709
ltibia 9.75865
lfoot -15.3182 5.07936
ltoes -3.99798
2202
root 3.90021 17.5683 0.206327 181.702 99.3249 183.858
lowerback -3.63526 -2.80327 0.339999
upperback -7.29021 -3.62996 -2.45898
thorax -5.71743 -1.81544 -2.70167
lowerneck 6.93162 -18.8731 -8.0849
upperneck -1.4382 -25.699 6.8929
head 0.423162 -12.9465 3.47484
rclavicle -5.1684e-014 -2.38542e-015
rhumerus -33.0404 15.9376 -90.8763
rradius 102.737
rwrist -8.7371
rhand -18.2454 28.9884
rfingers 7.12502
rthumb 8.0335 -0.838881
lclavicle -5.1684e-014 -2.38542e-015
lhumerus -64.9247 -8.22333 96.1706
lradius 114.973
lwrist 53.7891
lhand -3.12084 -3.29199
lfingers 7.12502
lthumb 22.598 25.4053
rfemur 0.190526 5.74439 18.1878
rtibia 20.4235
rfoot -20.569 -3.19911
rtoes -10.867
lfemur 6.79868 2.9671 -17.4244
ltibia 9.18743
lfoot -15.0484 5.13996
ltoes -3.54125
2203
root 3.9164 17.5661 0.197682 182.83 99.9796 184.97
lowerback -3.92933 -2.76202 0.0935811
upperback -7.29257 -3.57204 -2.64638
thorax -5.54719 -1.77675 -2.77466
lowerneck 6.87624 -18.8863 -7.92706
upperneck -1.20322 -25.711 6.6754
head 0.457852 -12.9505 3.37187
rclavicle 1.19271e-015 -2.62396e-014
rhumerus -32.1003 16.4097 -90.5612
rradius 102.782
rwrist -9.15738
rhand -18.1867 28.8107
rfingers 7.12502
rthumb 8.09011 -1.01446
lclavicle 1.19271e-015 -2.62396e-014
lhumerus -65.3227 -8.54342 95.9597
lradius 114.799
lwrist 53.7237
lhand -3.15553 -3.35465
lfingers 7.12502
lthumb 22.5647 25.3467
rfemur 0.0252132 5.66506 17.7702
rtibia 20.5629
rfoot -20.3431 -2.5589
rtoes -11.0852
lfemur 7.21949 3.60609 -17.7417
ltibia 8.73327
lfoot -15.0484 5.13844
ltoes -3.38942
2204
root 3.91898 17.5662 0.191457 185.579 100.319 187.819
lowerback -3.97852 -2.82107 -0.536963
upperback -7.26527 -3.65122 -2.89902
thorax -5.47105 -1.78767 -2.68856
lowerneck 6.82823 -18.9028 -8.0246
upperneck -1.00664 -25.7466 6.66322
head 0.544049 -12.969 3.35799
rclavicle 7.7526e-015 9.14409e-015
rhumerus -31.1672 16.8236 -90.114
rradius 102.834
rwrist -9.36012
rhand -18.0212 28.5834
rfingers 7.12502
rthumb 8.2499 -1.23557
lclavicle 7.7526e-015 9.14409e-015
lhumerus -65.5645 -8.90365 95.8225
lradius 114.613
lwrist 53.5903
lhand -3.06729 -3.40767
lfingers 7.12502
lthumb 22.6494 25.2833
rfemur 0.0105597 5.37298 17.0512
rtibia 20.6174
rfoot -20.1641 -2.01737
rtoes -11.0534
lfemur 7.49857 3.89801 -18.3771
ltibia 8.48834
lfoot -15.0744 5.19526
ltoes -3.89805
2205
root 3.89734 17.5716 0.18928 185.213 100.384 187.337
lowerback -3.83167 -2.97089 -0.716825
upperback -7.34829 -3.85473 -2.91312
thorax -5.64151 -1.87877 -2.59196
lowerneck 6.89457 -18.904 -8.21549
upperneck -0.9429 -25.772 6.7104
head 0.588244 -12.984 3.39489
rclavicle -7.15625e-015 5.08889e-014
rhumerus -30.2844 17.2292 -89.615
rradius 102.814
rwrist -9.58487
rhand -18.0551 28.522
rfingers 7.12502
rthumb 8.21718 -1.29825
lclavicle -7.15625e-015 5.08889e-014
lhumerus -65.7521 -9.24832 95.8185
lradius 114.461
lwrist 53.5656
lhand -3.15039 -3.39435
lfingers 7.12502
lthumb 22.5696 25.3064
rfemur -0.232434 5.25607 17.1049
rtibia 20.6684
rfoot -20.1007 -1.82551
rtoes -10.4463
lfemur 7.46164 3.95323 -18.2997
ltibia 8.2076
lfoot -14.9092 5.26275
ltoes -3.59954
